<svg width="393" height="107" viewBox="0 0 393 107" fill="none" xmlns="http://www.w3.org/2000/svg">
<path d="M54.091 90.024C46.4963 90.024 39.9683 88.4027 34.507 85.16C29.0457 81.832 24.8643 77.3947 21.963 71.848C19.0617 66.3013 17.611 60.2 17.611 53.544C17.611 46.8027 19.0617 40.7013 21.963 35.24C24.8643 29.6933 29.0457 25.2987 34.507 22.056C39.9683 18.728 46.4963 17.064 54.091 17.064C59.6377 17.064 64.6297 18.0027 69.067 19.88C73.5043 21.672 77.259 24.1893 80.331 27.432L77.643 30.12C74.827 27.304 71.4563 25.0853 67.531 23.464C63.6057 21.8427 59.1257 21.032 54.091 21.032C47.2643 21.032 41.3763 22.5253 36.427 25.512C31.563 28.4133 27.851 32.3387 25.291 37.288C22.731 42.152 21.451 47.5707 21.451 53.544C21.451 59.5173 22.731 64.9787 25.291 69.928C27.851 74.792 31.563 78.7173 36.427 81.704C41.3763 84.6053 47.2643 86.056 54.091 86.056C59.1257 86.056 63.6057 85.2453 67.531 83.624C71.4563 82.0027 74.827 79.784 77.643 76.968L80.331 79.656C77.259 82.8133 73.5043 85.3307 69.067 87.208C64.6297 89.0853 59.6377 90.024 54.091 90.024ZM54.091 98.472C47.2643 98.472 41.0777 97.32 35.531 95.016C30.0697 92.6267 25.3337 89.384 21.323 85.288C17.3977 81.192 14.3683 76.456 12.235 71.08C10.187 65.6187 9.163 59.7733 9.163 53.544C9.163 47.3147 10.187 41.512 12.235 36.136C14.3683 30.6747 17.3977 25.896 21.323 21.8C25.3337 17.6187 30.0697 14.376 35.531 12.072C41.0777 9.768 47.2643 8.616 54.091 8.616C60.8323 8.616 66.891 9.768 72.267 12.072C77.7283 14.2907 82.4217 17.4053 86.347 21.416L83.531 24.232C80.0323 20.5627 75.7657 17.704 70.731 15.656C65.7817 13.608 60.235 12.584 54.091 12.584C45.7283 12.584 38.4323 14.4187 32.203 18.088C26.059 21.7573 21.323 26.7067 17.995 32.936C14.667 39.08 13.003 45.9493 13.003 53.544C13.003 61.0533 14.667 67.9227 17.995 74.152C21.323 80.3813 26.059 85.3307 32.203 89C38.4323 92.6693 45.7283 94.504 54.091 94.504C60.235 94.504 65.7817 93.48 70.731 91.432C75.7657 89.384 80.0323 86.5253 83.531 82.856L86.347 85.672C82.4217 89.5973 77.7283 92.712 72.267 95.016C66.891 97.32 60.8323 98.472 54.091 98.472ZM54.091 106.92C46.0697 106.92 38.7737 105.555 32.203 102.824C25.7177 100.008 20.1283 96.168 15.435 91.304C10.7417 86.44 7.115 80.808 4.555 74.408C1.995 67.9227 0.715 60.968 0.715 53.544C0.715 46.12 1.995 39.208 4.555 32.808C7.115 26.3227 10.7417 20.648 15.435 15.784C20.1283 10.92 25.7177 7.12267 32.203 4.392C38.7737 1.57599 46.0697 0.167992 54.091 0.167992C61.9417 0.167992 69.1097 1.53333 75.595 4.26399C82.0803 6.90933 87.6697 10.6213 92.363 15.4L89.675 18.088C85.323 13.736 80.1177 10.3227 74.059 7.84799C68.0857 5.28799 61.4297 4.008 54.091 4.008C46.5817 4.008 39.7977 5.28799 33.739 7.84799C27.6803 10.408 22.475 13.9493 18.123 18.472C13.771 22.9947 10.4003 28.2853 8.011 34.344C5.707 40.3173 4.555 46.7173 4.555 53.544C4.555 60.3707 5.707 66.8133 8.011 72.872C10.4003 78.8453 13.771 84.0933 18.123 88.616C22.475 93.1387 27.6803 96.68 33.739 99.24C39.7977 101.8 46.5817 103.08 54.091 103.08C61.4297 103.08 68.0857 101.843 74.059 99.368C80.1177 96.808 85.323 93.352 89.675 89L92.363 91.688C87.6697 96.3813 82.0803 100.093 75.595 102.824C69.1097 105.555 61.9417 106.92 54.091 106.92ZM118.296 105V2.088H122.136V105H118.296ZM101.4 105V2.088H105.24V105H101.4ZM109.848 105V2.088H113.688V105H109.848ZM184.728 105V2.088H188.568V105H184.728ZM167.832 105V2.088H171.672V105H167.832ZM176.28 105V2.088H180.12V105H176.28ZM126.744 47.016V43.176H163.224V47.016H126.744ZM126.744 55.464V51.624H163.224V55.464H126.744ZM126.744 63.912V60.072H163.224V63.912H126.744ZM215.48 105L252.728 2.088H256.824L219.576 105H215.48ZM197.56 105L234.808 2.088H238.776L201.656 105H197.56ZM206.52 105L243.64 2.088H247.864L210.616 105H206.52ZM290.488 105L257.08 12.712L259.128 6.952L294.584 105H290.488ZM281.528 105L252.728 25.256L254.648 19.368L285.624 105H281.528ZM272.568 105L248.248 37.672L250.296 31.912L276.664 105H272.568ZM236.344 70.952L237.752 67.112H254.648L256.056 70.952H236.344ZM233.272 79.528L234.68 75.688H257.72L259.128 79.528H233.272ZM230.2 87.976L231.608 84.136H260.792L262.2 87.976H230.2ZM388.773 105V2.088H392.613V105H388.773ZM371.877 105V2.088H375.717V105H371.877ZM380.325 105V2.088H384.165V105H380.325ZM320.421 105V2.088H324.261V105H320.421ZM303.525 105V2.088H307.365V105H303.525ZM311.973 105V2.088H315.813V105H311.973ZM367.269 69.544L328.869 14.376V7.592L367.269 62.76V69.544ZM367.269 84.392L328.869 29.224V22.44L367.269 77.608V84.392ZM367.269 99.24L328.869 44.072V37.288L367.269 92.456V99.24Z" fill="black"/>
</svg>
